<?xml version="1.0" encoding="UTF-8" standalone="no"?>
<!DOCTYPE svg PUBLIC "-//W3C//DTD SVG 1.1//EN" "http://www.w3.org/Graphics/SVG/1.1/DTD/svg11.dtd">
<svg width="100%" height="100%" viewBox="0 0 192 192" version="1.1" xmlns="http://www.w3.org/2000/svg" xmlns:xlink="http://www.w3.org/1999/xlink" xml:space="preserve" xmlns:serif="http://www.serif.com/" style="fill-rule:evenodd;clip-rule:evenodd;stroke-linejoin:round;stroke-miterlimit:2;">
    <g transform="matrix(1.22213,0,0,1.22213,-24.909,-18.9291)">
        <path d="M77.211,87.495C80.013,78.259 88.6,71.529 98.747,71.529C109.325,71.529 118.209,78.845 120.609,88.689C123.248,79.198 131.96,72.225 142.289,72.225C154.708,72.225 164.789,82.306 164.789,94.722C164.789,107.14 154.708,117.22 142.289,117.22C131.709,117.22 122.826,109.904 120.427,100.06C117.787,109.551 109.075,116.525 98.747,116.525C88.6,116.525 80.013,109.794 77.211,100.558C74.409,109.794 65.822,116.525 55.676,116.525C43.257,116.525 33.176,106.443 33.176,94.027C33.176,81.61 43.257,71.529 55.676,71.529C65.822,71.529 74.409,78.259 77.211,87.495ZM108.747,94.027C108.747,88.509 104.265,84.029 98.747,84.029C93.228,84.029 88.747,88.509 88.747,94.027C88.747,99.545 93.228,104.025 98.747,104.025C104.265,104.025 108.747,99.545 108.747,94.027ZM65.676,94.027C65.676,88.509 61.194,84.029 55.676,84.029C50.157,84.029 45.676,88.509 45.676,94.027C45.676,99.545 50.157,104.025 55.676,104.025C61.194,104.025 65.676,99.545 65.676,94.027ZM152.289,94.722C152.289,89.204 147.808,84.725 142.289,84.725C136.77,84.725 132.289,89.204 132.289,94.722C132.289,100.241 136.77,104.72 142.289,104.72C147.808,104.72 152.289,100.241 152.289,94.722Z" style="fill:rgb(229,33,33);"/>
    </g>
</svg>
