<svg width="30" height="31" viewBox="0 0 30 31" fill="none" xmlns="http://www.w3.org/2000/svg">
<g clip-path="url(#clip0_411_52)">
<path d="M17.2777 29.5218C16.7969 29.5612 16.4416 29.5853 16.3581 29.5907C16.2749 29.5989 15.9205 29.633 15.4396 29.6724C12.2085 29.937 11.804 29.766 11.5364 29.6526C11.4593 29.6202 11.3868 29.58 11.3194 29.5334C10.1338 29.0795 9.68893 27.5907 9.38482 26.5729C9.3406 26.425 9.29935 26.2866 9.25921 26.165C9.11486 25.7276 8.53959 24.9405 8.23041 24.5176C7.93067 24.1078 7.80674 23.9381 7.73767 23.6979C7.70856 23.5971 7.64848 23.3879 7.62628 22.3276C7.40921 17.3999 7.09788 14.3755 6.86146 13.3265C6.66235 13.3463 6.4288 13.3963 6.20237 13.4443C6.03988 13.479 5.87198 13.5147 5.71097 13.5407L5.68481 13.5446C5.62765 13.5536 5.56388 13.5624 5.50349 13.5689L5.43137 13.5745C5.37481 13.5791 5.31962 13.5821 5.26794 13.5827C5.23517 13.5829 5.20503 13.5818 5.17565 13.5799C5.1286 13.5784 5.06472 13.5757 4.99157 13.5655C4.86986 13.5486 4.75181 13.5178 4.64259 13.4742C3.96346 13.2032 3.7426 12.5302 3.54757 11.9364C3.4023 11.4944 3.23778 10.9933 2.93486 10.6536C2.28913 9.92929 1.47671 8.92875 1.27335 8.27503C1.22912 8.13192 1.19205 7.90723 1.2646 7.64042C1.27156 7.61476 1.28122 7.58369 1.29054 7.55674C1.3222 7.46742 1.36495 7.37965 1.41753 7.29625L1.4444 7.25573C1.46935 7.21864 1.4995 7.17799 1.53391 7.13576L1.5506 7.11503C1.5855 7.07371 1.61934 7.03631 1.65702 6.99709L1.68458 6.96837C1.71245 6.94018 1.74266 6.9103 1.77587 6.87853L1.78849 6.86673C2.71463 5.99383 5.71115 4.00609 6.55259 3.56818C7.50167 3.07427 10.8679 2.09481 11.5331 1.9033L11.5435 1.90026C11.6192 1.87907 11.6953 1.86519 11.7705 1.85903C12.084 1.83336 12.3868 1.93893 12.6111 2.17435C12.6797 2.23691 13.2718 2.75121 14.1542 2.67894C15.0757 2.60348 15.5862 1.94231 15.5909 1.93592C15.7792 1.67191 16.0733 1.50859 16.3903 1.48263C16.461 1.47684 16.5329 1.47804 16.6049 1.48619C17.3019 1.56794 20.7825 1.9867 21.7993 2.31962C22.7008 2.61481 25.9807 4.08856 27.0359 4.79894L27.0508 4.80903L27.0509 4.80875C27.0889 4.83469 27.1235 4.85926 27.1559 4.88279L27.1853 4.90453C27.231 4.93896 27.2705 4.97036 27.305 4.99986L27.3324 5.02407C27.3709 5.05788 27.4053 5.0912 27.4377 5.12536C27.45 5.13799 27.4617 5.15066 27.472 5.16196C27.5379 5.23634 27.5944 5.31599 27.6401 5.39897C27.6539 5.4243 27.6685 5.45351 27.6797 5.47837C27.7943 5.72876 27.7943 5.95649 27.7741 6.10338C27.6796 6.78299 27.0408 7.90237 26.5217 8.72203C26.2778 9.10651 26.1971 9.62776 26.1257 10.0874C26.0299 10.7051 25.9214 11.4051 25.2948 11.7834C25.1948 11.8437 25.0833 11.8933 24.9642 11.9304C24.894 11.9523 24.8307 11.9656 24.7863 11.974C24.7575 11.9807 24.7283 11.9866 24.6965 11.9917C24.645 11.9996 24.5901 12.0056 24.5335 12.0102L24.469 12.0158C24.4038 12.0199 24.3415 12.0214 24.2776 12.022L24.2521 12.0224C24.089 12.0229 23.9174 12.015 23.7516 12.0072C23.5204 11.9966 23.2818 11.9854 23.0821 11.9982C23.0195 13.0717 23.2044 16.1064 23.7919 21.0038C23.9425 22.0536 23.9172 22.2697 23.9049 22.374C23.8758 22.6222 23.7811 22.8098 23.5521 23.2629C23.3158 23.7305 22.8763 24.6007 22.805 25.0557C22.7852 25.1822 22.7671 25.3255 22.7476 25.4786C22.6129 26.5323 22.4162 28.0739 21.32 28.7145C21.2611 28.7717 21.196 28.8231 21.1252 28.8676C20.8801 29.0227 20.5088 29.2572 17.2777 29.5218Z" fill="white"/>
<path d="M18.1844 25.9503C18.0044 26.0779 17.8037 26.1665 17.5998 26.2269C16.7545 26.5109 15.4662 26.6164 14.586 26.4737C14.3748 26.4473 14.1624 26.3926 13.964 26.2959C13.6857 26.8587 12.7065 28.7036 11.895 28.5725C11.9028 28.6104 11.9236 28.6401 11.9636 28.657C12.501 28.8844 16.2699 28.5124 16.2699 28.5124C16.2699 28.5124 20.0492 28.2662 20.5423 27.9545C20.5791 27.9313 20.5947 27.8986 20.5963 27.8599C19.8169 28.1213 18.5507 26.4603 18.1844 25.9503Z" fill="#E1B5B6"/>
<path d="M18.4367 25.7251C18.6245 25.9672 19.184 26.6792 19.5307 27.0261C20.0224 27.518 20.3148 27.5782 20.4453 27.5704C20.5141 27.5665 20.6184 27.5426 20.7403 27.3866C21.1497 26.8631 21.2003 26.441 21.2589 25.9517C21.2667 25.8872 21.2745 25.823 21.2829 25.7586C21.2964 25.6568 21.3086 25.5502 21.3211 25.4413C21.3798 24.9311 21.4462 24.3528 21.6774 23.9489C21.7794 23.7705 21.8665 23.5509 21.9509 23.3381C22.0589 23.0658 22.1608 22.8086 22.2986 22.6214C22.4614 22.4 22.5013 22.1568 22.4945 22.0801C22.4875 22.0018 22.4676 21.8323 22.4506 21.692C20.1671 22.0078 19.199 24.8652 18.4367 25.7251Z" fill="#C65B80"/>
<path d="M24.7212 9.92585C24.7508 9.3301 25.0112 8.37043 25.5133 7.67121C25.947 7.06732 26.3893 5.7985 26.425 5.69493C25.4721 5.05323 22.2785 3.61576 21.458 3.34722C20.5042 3.03491 16.6356 2.5792 16.4859 2.56173C16.5145 2.56512 16.6317 2.57884 16.8113 2.60081C16.8255 2.73915 16.8548 3.03948 16.8649 3.26393C16.8778 3.54829 16.9173 4.41329 16.4239 5.44958C15.909 6.53099 14.6009 6.66185 14.4845 6.67138L14.4782 6.67189C14.3618 6.68143 13.0499 6.76513 12.366 5.78188C11.7106 4.83968 11.6087 3.97977 11.5752 3.69711C11.5488 3.47399 11.5287 3.17291 11.5202 3.0341C11.694 2.98319 11.8074 2.95058 11.8348 2.94261C11.6901 2.98419 7.94709 4.06321 7.0567 4.52654C6.29092 4.92499 3.37374 6.86287 2.53794 7.65105C2.59001 7.74743 3.23285 8.92739 3.75897 9.45268C4.36817 10.0609 4.78141 10.9654 4.90736 11.5484C5.00206 11.986 5.38749 12.2913 5.43098 12.3247C5.48249 12.364 5.51816 12.4159 5.53856 12.4723C6.15666 12.3733 7.08122 12.059 7.62609 12.3677C8.25168 12.7221 8.62376 20.2296 8.71444 22.292C8.72069 22.4337 8.72572 22.5504 8.72922 22.6367C8.72731 22.5933 8.72526 22.5431 8.72284 22.4851C9.00459 22.4373 10.1773 22.3217 11.5193 23.3805C12.0993 23.838 12.5701 24.3922 12.9855 24.8816C13.4751 25.4579 13.898 25.9556 14.311 26.0845C15.0854 26.3257 17.083 26.1621 17.8078 25.7981C18.1942 25.6038 18.5305 25.0439 18.9199 24.3956C19.2502 23.8452 19.6246 23.2218 20.1223 22.676C21.2743 21.4129 22.4502 21.3363 22.7358 21.3376C22.7429 21.3952 22.749 21.445 22.7542 21.4882C22.7438 21.4025 22.7296 21.2865 22.7127 21.1457C22.4667 19.0961 21.6125 11.6279 22.172 11.1766C22.6594 10.7833 23.6227 10.943 24.2487 10.9401C24.2597 10.8811 24.2864 10.8241 24.3308 10.777C24.3685 10.7369 24.699 10.373 24.7212 9.92585Z" fill="#E1B5B6"/>
<path d="M22.2986 22.6214C22.1608 22.8086 22.0589 23.0658 21.9509 23.3381C21.8665 23.5509 21.7794 23.7705 21.6774 23.9489C21.4462 24.3528 21.3798 24.9311 21.3211 25.4413C21.3086 25.5502 21.2964 25.6567 21.2829 25.7586C21.2745 25.823 21.2667 25.8872 21.2589 25.9516C21.2003 26.4409 21.1497 26.863 20.7403 27.3865C20.6184 27.5426 20.5141 27.5665 20.4453 27.5704C20.3148 27.5782 20.0224 27.518 19.5307 27.026C19.184 26.6791 18.6245 25.9672 18.4367 25.7251C19.199 24.8652 20.1671 22.0077 22.4506 21.692C22.4676 21.8323 22.4875 22.0018 22.4945 22.0801C22.5013 22.1568 22.4614 22.4 22.2986 22.6214ZM12.8108 27.5763C12.4056 28.1418 12.127 28.2487 11.997 28.2622C11.9284 28.2696 11.8217 28.2629 11.676 28.1288C11.1868 27.6789 11.0681 27.2707 10.9307 26.7974C10.9126 26.7351 10.8946 26.673 10.8757 26.6109C10.8458 26.5125 10.8165 26.4094 10.7863 26.304C10.6454 25.8102 10.486 25.2503 10.192 24.8895C10.0625 24.73 9.94068 24.5275 9.82293 24.3313C9.67203 24.0802 9.52953 23.843 9.36325 23.6807C9.16642 23.4887 9.08762 23.2553 9.08188 23.1784C9.07601 23.1001 9.06809 22.9296 9.06188 22.7884C11.3664 22.7284 12.7866 25.3903 13.6786 26.1147C13.5326 26.3842 13.0965 27.1777 12.8108 27.5763ZM22.7358 21.3376C22.4502 21.3363 21.2743 21.4129 20.1223 22.6761C19.6246 23.2218 19.2502 23.8452 18.9199 24.3956C18.5305 25.0439 18.1942 25.6038 17.8078 25.7981C17.083 26.1621 15.0854 26.3257 14.311 26.0845C13.898 25.9556 13.4751 25.4579 12.9855 24.8816C12.5701 24.3923 12.0993 23.838 11.5193 23.3806C10.1773 22.3217 9.00459 22.4373 8.72283 22.4851C8.72525 22.5431 8.7273 22.5933 8.72922 22.6367C8.72572 22.5504 8.72069 22.4337 8.71443 22.292C8.71443 22.292 8.73343 23.2226 8.78426 23.3994C8.83523 23.5761 10.0032 24.946 10.2938 25.8268C10.5843 26.7074 10.9363 28.4141 11.8933 28.5722L11.8951 28.5725C12.7065 28.7036 13.6858 26.8587 13.964 26.2959C14.1271 26.3756 14.341 26.4341 14.586 26.4737C15.4662 26.6164 16.7546 26.5109 17.5998 26.2269C17.835 26.148 18.0365 26.0554 18.1844 25.9503C18.5507 26.4603 19.8169 28.1214 20.5963 27.8599L20.5979 27.8594C21.5164 27.5477 21.5862 25.8065 21.7296 24.8903C21.873 23.9739 22.8024 22.4323 22.824 22.2497C22.8454 22.067 22.7127 21.1457 22.7127 21.1457C22.7296 21.2865 22.7437 21.4025 22.7542 21.4882C22.749 21.445 22.7429 21.3952 22.7358 21.3376Z" fill="#C65B80"/>
<path d="M26.6885 5.92601L26.6847 5.9184C26.6781 5.9064 26.6691 5.89377 26.6567 5.87979L26.6489 5.87156C26.6371 5.85903 26.6231 5.84546 26.6069 5.83123L26.5955 5.82085C26.5765 5.80481 26.5549 5.78776 26.5311 5.76981L26.5107 5.7547C26.4876 5.73791 26.4629 5.72044 26.4358 5.70206L26.4252 5.69475L26.425 5.69504C26.3893 5.7986 25.947 7.06743 25.5133 7.67132C25.0112 8.37054 24.7507 9.33021 24.7212 9.92596C24.6989 10.3732 24.3684 10.737 24.3308 10.7771C24.2864 10.8242 24.2596 10.8812 24.2487 10.9402L24.2487 10.9405L24.2576 10.9404C24.306 10.94 24.3528 10.9389 24.3968 10.9364L24.4176 10.9343C24.4564 10.9314 24.4941 10.9283 24.5285 10.9229L24.5599 10.9158C24.588 10.9105 24.6164 10.9053 24.6408 10.8977C24.6746 10.8871 24.7047 10.8742 24.7307 10.8585C25.147 10.6074 24.9237 9.21458 25.6008 8.14607C26.2778 7.07743 26.65 6.28712 26.6958 5.95773L26.6885 5.92601Z" fill="#C65B80"/>
<path d="M9.06185 22.7885C9.06806 22.9296 9.07598 23.1001 9.08185 23.1785C9.08759 23.2553 9.16639 23.4887 9.36323 23.6807C9.5295 23.843 9.672 24.0802 9.82291 24.3313C9.94065 24.5276 10.0625 24.7301 10.192 24.8895C10.486 25.2504 10.6454 25.8102 10.7863 26.304C10.8165 26.4094 10.8458 26.5126 10.8756 26.6109C10.8946 26.673 10.9126 26.7351 10.9307 26.7974C11.0681 27.2707 11.1867 27.679 11.6759 28.1289C11.8217 28.263 11.9284 28.2696 11.997 28.2623C12.127 28.2487 12.4056 28.1418 12.8108 27.5764C13.0965 27.1777 13.5326 26.3842 13.6786 26.1148C12.7866 25.3904 11.3664 22.7285 9.06185 22.7885Z" fill="#C65B80"/>
<path d="M14.4549 6.34818C17.0909 6.13232 16.4787 2.56083 16.4787 2.56083C16.4787 2.56083 15.7114 3.63688 14.2427 3.75715C12.774 3.87742 11.8418 2.94055 11.8418 2.94055C11.8418 2.94055 11.819 6.56404 14.4549 6.34818Z" fill="#C65B80"/>
<path d="M4.90731 11.5485C4.78136 10.9655 4.36812 10.061 3.75892 9.45276C3.2328 8.92747 2.58996 7.74751 2.53789 7.65114L2.53773 7.65087L2.52831 7.65983C2.50463 7.68236 2.48305 7.70362 2.46303 7.72394L2.44532 7.74217C2.42472 7.76377 2.40622 7.7841 2.39007 7.80301L2.38049 7.81511C2.3669 7.83177 2.35529 7.84745 2.34562 7.86174L2.33925 7.87113C2.3293 7.88694 2.32248 7.90086 2.31791 7.91378L2.31542 7.9219L2.31342 7.95439C2.41214 8.27194 2.9079 8.99117 3.74988 9.93542C4.5917 10.8795 4.598 12.2902 5.0496 12.4701C5.0777 12.4815 5.10962 12.4892 5.14474 12.4943C5.17 12.4978 5.19885 12.4983 5.22745 12.4989L5.25957 12.5008C5.2944 12.5005 5.33215 12.4974 5.37084 12.494L5.39172 12.4927C5.43552 12.488 5.48191 12.4815 5.52973 12.474L5.53868 12.4728L5.53851 12.4724C5.51811 12.4159 5.48244 12.364 5.43093 12.3248C5.38744 12.2914 5.00201 11.9861 4.90731 11.5485Z" fill="#C65B80"/>
<path d="M11.5751 3.69713C11.6087 3.97979 11.7105 4.83969 12.366 5.7819C13.0498 6.76515 14.3618 6.68145 14.4782 6.67191L14.4845 6.6714C14.6008 6.66187 15.909 6.53101 16.4238 5.4496C16.9173 4.41331 16.8777 3.54831 16.8649 3.26395C16.8547 3.0395 16.8255 2.73917 16.8113 2.60083C16.6316 2.57886 16.5144 2.56514 16.4859 2.56175L16.4787 2.56083C16.4787 2.56083 17.0909 6.13232 14.4548 6.34818C11.8189 6.56404 11.8418 2.94055 11.8418 2.94055L11.8348 2.94263C11.8073 2.9506 11.6939 2.98321 11.5201 3.03412C11.5286 3.17293 11.5488 3.47401 11.5751 3.69713Z" fill="#C65B80"/>
<path d="M14.6542 8.78329L16.0506 11.0993L18.7628 11.2669L16.9771 13.3047L17.6523 15.9204L15.1522 14.864L12.8574 16.313L13.0979 13.6223L11.0045 11.9022L13.6532 11.2956L14.6542 8.78329Z" fill="#B01F8E"/>
<path d="M13.5687 15.1517L13.6075 14.7177L13.8207 14.7363L13.8223 14.7354L13.8243 14.7366L13.8242 14.7386L13.9388 14.9182L13.5687 15.1517Z" fill="white"/>
<path d="M13.2885 12.9981L12.9807 12.7452L13.1196 12.5784L13.4274 12.8314L13.2885 12.9981ZM13.6991 13.5526C13.6859 13.4402 13.6416 13.3344 13.5706 13.2462L13.7404 13.1107C13.8371 13.2307 13.8975 13.3749 13.9154 13.5275L13.6991 13.5526ZM13.8599 14.341L13.6429 14.3222L13.6783 13.9266L13.8951 13.9455L13.8599 14.341Z" fill="white"/>
<path d="M12.6727 12.492L12.3351 12.2144L12.7621 12.1167L12.8114 12.3251L12.8104 12.3263L12.8108 12.3276L12.8091 12.3282L12.6727 12.492Z" fill="white"/>
<path d="M14.5117 11.3618L14.3093 11.2824L14.4564 10.9129L14.6588 10.9923L14.5117 11.3618ZM13.9959 12.0388L13.9052 11.8421C14.0086 11.7951 14.0964 11.7202 14.1589 11.6257L14.3408 11.7445C14.2557 11.873 14.1364 11.9748 13.9959 12.0388ZM13.2003 12.2384L13.1516 12.0277L13.5411 11.9386L13.5897 12.1493L13.2003 12.2384Z" fill="white"/>
<path d="M14.8062 10.6226L14.8048 10.6221L14.8035 10.6228L14.8026 10.6212L14.6038 10.5431L14.7652 10.1377L14.9905 10.5115L14.8062 10.6226Z" fill="white"/>
<path d="M15.2142 11.3039L15.0088 10.9633L15.1957 10.852L15.401 11.1926L15.2142 11.3039ZM15.8331 11.8881C15.684 11.8477 15.5497 11.7664 15.445 11.6534L15.6053 11.5068C15.6822 11.59 15.7809 11.6497 15.8907 11.6795L15.8331 11.8881ZM16.6506 11.9556L16.2518 11.9311L16.2654 11.7153L16.6644 11.7399L16.6506 11.9556Z" fill="white"/>
<path d="M17.213 12.1202L17.0499 11.9805L17.0499 11.9791L17.0489 11.9781L17.05 11.9768L17.0636 11.7645L17.5009 11.7914L17.213 12.1202Z" fill="white"/>
<path d="M16.6878 12.7196L16.5238 12.5775L16.7863 12.2779L16.9505 12.4199L16.6878 12.7196ZM16.3726 13.3333L16.1551 13.3434C16.148 13.1899 16.1844 13.0379 16.2602 12.904L16.4498 13.01C16.3941 13.1085 16.3673 13.2202 16.3726 13.3333ZM16.3424 14.1373L16.2431 13.7526L16.4539 13.6987L16.5532 14.0835L16.3424 14.1373Z" fill="white"/>
<path d="M16.7614 14.8901L16.3582 14.72L16.4421 14.5241L16.4417 14.5222L16.4436 14.5207L16.4451 14.5213L16.6525 14.4683L16.7614 14.8901Z" fill="white"/>
<path d="M15.2717 14.2744C15.1614 14.2522 15.0447 14.2615 14.9386 14.3014L14.8619 14.0988C15.0061 14.045 15.1646 14.0322 15.315 14.0623L15.2717 14.2744ZM14.2765 14.7046L14.1599 14.5222L14.4975 14.3092L14.6141 14.4918L14.2765 14.7046ZM15.9907 14.5645L15.6231 14.4093L15.7086 14.2103L16.0761 14.3654L15.9907 14.5645Z" fill="white"/>
</g>
<defs>
<clipPath id="clip0_411_52">
<rect width="26.6495" height="28.0521" fill="white" transform="translate(0.795227 2.75781) rotate(-4.68152)"/>
</clipPath>
</defs>
</svg>
