<svg width="476" height="60" viewBox="0 0 476 60" fill="none" xmlns="http://www.w3.org/2000/svg">
<path d="M4 60V56H0V4H4V0H40V4H44V16H32V12H12V48H32V44H44V56H40V60H4Z" fill="white"/>
<path d="M48 60V0H60V24H80V0H92V60H80V36H60V60H48Z" fill="white"/>
<path d="M128 24V12H108V24H128ZM96 60V4H100V0H136V4H140V60H128V36H108V60H96Z" fill="white"/>
<path d="M148 60V56H144V0H156V48H188V60H148Z" fill="white"/>
<path d="M196 60V56H192V0H204V48H236V60H196Z" fill="white"/>
<path d="M244 60V56H240V4H244V0H284V12H252V24H272V36H252V48H284V60H244Z" fill="white"/>
<path d="M288 60V0H300V4H304V12H308V20H312V28H316V32H320V0H332V60H320V56H316V48H312V40H308V32H304V28H300V60H288Z" fill="white"/>
<path d="M340 60V56H336V4H340V0H376V4H380V16H368V12H348V48H368V36H360V24H376V28H380V56H376V60H340Z" fill="white"/>
<path d="M388 60V56H384V4H388V0H428V12H396V24H416V36H396V48H428V60H388Z" fill="white"/>
<path d="M436 60V56H432V44H444V48H464V36H436V32H432V4H436V0H472V4H476V16H464V12H444V24H472V28H476V56H472V60H436Z" fill="white"/>
</svg>
