<svg width="37" height="37" viewBox="0 0 37 37" fill="none" xmlns="http://www.w3.org/2000/svg">
<path d="M3 18.5L6.44444 15.0556M6.44444 15.0556L18.5 3L30.5556 15.0556M6.44444 15.0556V32.2778C6.44444 33.229 7.21552 34 8.16667 34H13.3333M30.5556 15.0556L34 18.5M30.5556 15.0556V32.2778C30.5556 33.229 29.7845 34 28.8333 34H23.6667M13.3333 34C14.2845 34 15.0556 33.229 15.0556 32.2778V25.3889C15.0556 24.4377 15.8266 23.6667 16.7778 23.6667H20.2222C21.1734 23.6667 21.9444 24.4377 21.9444 25.3889V32.2778C21.9444 33.229 22.7155 34 23.6667 34M13.3333 34H23.6667" stroke="#FF13A1" stroke-width="5" stroke-linecap="round" stroke-linejoin="round"/>
</svg>
