<svg width="717" height="969" viewBox="0 0 717 969" fill="none" xmlns="http://www.w3.org/2000/svg">
<path d="M606.922 714.375C595.802 531.011 429.075 486.827 362.841 327.369C333.931 257.768 337.697 165.986 350.413 122.096C354.166 109.191 358.068 98.7102 360.962 91.7243C364.715 82.7684 369.053 73.9548 373.534 65.4525C385.53 43.432 399.548 22.323 412.408 0C377.583 20.0462 344.489 42.3692 313.849 67.2802C287.115 88.8427 262.408 112.687 239.714 138.963C220.927 160.983 203.586 184.676 188.269 210.645C106.767 347.478 105.751 511.04 221.65 640.278C223.529 642.252 224.253 645.138 226.275 649.087C153.732 627.52 59.0744 516.963 84.3657 377.547C60.2338 399.261 43.0371 424.021 32.0523 452.569C-12.1662 566.47 -12.4539 679.61 42.6056 789.561C58.4396 821.116 69.1536 852.551 111.565 893.301C95.6974 848.237 86.3374 762.2 133.201 714.655C128.326 760.248 137.271 789.201 149.458 812.418C173.861 858.927 212.667 888.147 264.346 888.147C308.742 888.147 352.931 858.727 366.002 814.993C392.291 727.039 317.497 645.779 253.703 563.855C190.93 483.239 157.963 375.262 271.767 205.362C194.459 448.171 388.631 541.261 470.793 637.392C559.442 741.109 562.755 875.999 451.591 969.008C523.407 939.085 615.174 850.416 606.922 714.375Z" fill="#646464"/>
<path d="M441.008 68.5874C422.881 108.475 390.176 168.712 410.906 279.161C441.626 442.826 652.407 492.141 660.797 664.482C665.27 756.344 650.87 802.115 614.493 871.107C704.745 760.288 800.147 587.223 589.066 392.417C507.7 317.324 389.63 274.523 441.008 68.5874Z" fill="#646464"/>
</svg>
