<svg width="90" height="95" viewBox="0 0 90 95" fill="none" xmlns="http://www.w3.org/2000/svg">
<path d="M57.5651 7.51945C57.3058 8.97783 57.1634 10.2947 57.1507 11.4261C57.1464 11.8198 57.1607 12.19 57.1846 12.5509C73.0435 17.7902 84.5231 32.733 84.5231 50.3134C84.5231 57.915 82.3744 65.0234 78.6569 71.0698C73.3704 79.6681 64.9055 86.1113 54.9089 88.7585C54.812 88.7844 54.7167 88.814 54.6195 88.8387C54.0869 88.9752 53.5486 89.0963 53.0079 89.2112C52.1936 89.3844 51.3705 89.5328 50.5389 89.6551C50.219 89.7021 49.8956 89.7387 49.5733 89.7781C47.9819 89.9724 46.3649 90.0843 44.7217 90.0843C42.0852 90.0843 39.5096 89.8205 37.0147 89.3292C31.6965 88.2823 26.7542 86.178 22.4209 83.2381C11.8674 76.0785 4.91955 63.9919 4.91955 50.3131C4.91955 35.0818 13.5388 21.8357 26.1549 15.1592C27.5172 13.0773 29.0643 11.0555 30.785 9.14595C31.3369 8.5336 31.9103 7.92973 32.5012 7.33435C13.7638 12.6593 0 29.9057 0 50.3131C0 74.9536 20.0618 95 44.7217 95C44.7472 95 44.7723 94.9981 44.7977 94.9981C46.0971 94.9958 47.381 94.9287 48.653 94.8172C71.4767 92.8202 89.443 73.6291 89.443 50.3131C89.4426 30.134 75.9822 13.0483 57.5651 7.51945Z" fill="#A91815"/>
<path d="M67.5175 61.9481C66.5033 46.0474 51.2978 42.216 45.2572 28.3883C42.6206 22.3527 42.9641 14.3937 44.1238 10.5877C44.4661 9.46869 44.8219 8.5598 45.0858 7.95401C45.4281 7.17739 45.8237 6.41311 46.2324 5.67582C47.3264 3.76627 48.6049 1.93577 49.7777 0C46.6017 1.73834 43.5835 3.67411 40.7891 5.8343C38.351 7.70413 36.0977 9.77178 34.028 12.0504C32.3146 13.9599 30.7331 16.0144 29.3362 18.2664C21.9032 30.1321 21.8106 44.3156 32.3806 55.5227C32.5519 55.6939 32.6179 55.9441 32.8024 56.2866C26.1864 54.4163 17.5536 44.8293 19.8602 32.7396C17.6594 34.6225 16.091 36.7696 15.0892 39.2452C11.0565 49.1223 11.0302 58.9334 16.0517 68.468C17.4957 71.2043 18.4728 73.9302 22.3408 77.464C20.8936 73.5562 20.04 66.0954 24.3139 61.9724C23.8694 65.9261 24.6852 68.4368 25.7966 70.4501C28.0221 74.4832 31.5613 77.017 36.2744 77.017C40.3233 77.017 44.3534 74.4658 45.5454 70.6733C47.9431 63.0463 41.1218 55.9997 35.3038 48.8955C29.5789 41.9048 26.5723 32.5414 36.9513 17.8083C29.9007 38.8639 47.6093 46.9362 55.1025 55.2724C63.1872 64.2664 63.4894 75.9635 53.3512 84.029C59.9008 81.4342 68.27 73.7451 67.5175 61.9481Z" fill="#A91815"/>
<path d="M52.3862 5.94775C50.733 9.40669 47.7503 14.6302 49.6409 24.208C52.4426 38.4004 71.6658 42.6769 72.4311 57.6216C72.839 65.5876 71.5257 69.5567 68.208 75.5394C76.4391 65.9296 85.1398 50.922 65.8891 34.0291C58.4685 27.5173 47.7005 23.8058 52.3862 5.94775Z" fill="#A91815"/>
</svg>
