<?xml version="1.0" encoding="UTF-8" standalone="no"?>
<!DOCTYPE svg PUBLIC "-//W3C//DTD SVG 1.1//EN" "http://www.w3.org/Graphics/SVG/1.1/DTD/svg11.dtd">
<svg width="100%" height="100%" viewBox="0 0 1679 1679" version="1.1" xmlns="http://www.w3.org/2000/svg" xmlns:xlink="http://www.w3.org/1999/xlink" xml:space="preserve" xmlns:serif="http://www.serif.com/" style="fill-rule:evenodd;clip-rule:evenodd;stroke-linejoin:round;stroke-miterlimit:2;">
    <g transform="matrix(1,0,0,1,-627.267,-4886.04)">
        <g transform="matrix(4.16667,0,0,4.16667,0,0)">
            <path d="M553.323,1374.04C553.323,1485.26 463.158,1575.43 351.934,1575.43C240.71,1575.43 150.544,1485.26 150.544,1374.04C150.544,1262.81 240.71,1172.65 351.934,1172.65C463.158,1172.65 553.323,1262.81 553.323,1374.04Z" style="fill:rgb(245,145,147);fill-rule:nonzero;"/>
            <path d="M316.877,1463.25C312.671,1463.25 308.662,1461.42 305.902,1458.23L262.868,1408.42C257.63,1402.36 258.298,1393.2 264.36,1387.96C270.422,1382.72 279.582,1383.39 284.82,1389.45L316.135,1425.7L418.46,1290.57C423.296,1284.19 432.394,1282.93 438.781,1287.77C445.167,1292.6 446.424,1301.7 441.588,1308.09L328.442,1457.5C325.799,1460.99 321.721,1463.1 317.346,1463.24C317.189,1463.25 317.033,1463.25 316.877,1463.25Z" style="fill:white;fill-rule:nonzero;"/>
        </g>
    </g>
</svg>
