<svg width="139" height="139" viewBox="0 0 139 139" fill="none" xmlns="http://www.w3.org/2000/svg">
<path d="M6.72532 47.5C4.31215 54.3861 3 61.7898 3 69.5C3 106.227 32.7731 136 69.5 136C84.7411 136 98.7847 130.873 110 122.249M11.7526 36.5C23.2148 16.4853 44.7826 3 69.5 3C106.227 3 136 32.7731 136 69.5C136 85.4285 130.4 100.049 121.061 111.5" stroke="white" stroke-width="6" stroke-linecap="round" stroke-linejoin="round"/>
<path fill-rule="evenodd" clip-rule="evenodd" d="M42.5476 42.9163C40.8444 41.5093 38.3232 41.7494 36.9162 43.4526C35.5093 45.1557 35.7494 47.677 37.4525 49.084L48.9525 58.584C50.6557 59.9909 53.1769 59.7508 54.5839 58.0476C55.9909 56.3445 55.7507 53.8232 54.0476 52.4163L42.5476 42.9163ZM63.4887 60.3686C61.7592 58.9941 59.2429 59.282 57.8685 61.0115C56.4941 62.741 56.7819 65.2572 58.5114 66.6317L62.873 70.0978L37.0584 90.2434C35.3169 91.6026 35.0068 94.1162 36.3659 95.8577C37.7251 97.5993 40.2387 97.9094 41.9802 96.5502L69.3156 75.2178L80.5322 84.1317C82.2617 85.5061 84.778 85.2183 86.1524 83.4888C87.5269 81.7593 87.239 79.243 85.5095 77.8686L75.8032 70.1549L101.942 49.7566C103.683 48.3975 103.993 45.8839 102.634 44.1423C101.275 42.4008 98.7613 42.0907 97.0197 43.4498L69.3606 65.0349L63.4887 60.3686ZM93.8655 85.2745C92.0841 83.9681 89.5808 84.3532 88.2744 86.1347C86.968 87.9161 87.3531 90.4193 89.1346 91.7257L96.6346 97.2257C98.4161 98.5321 100.919 98.147 102.226 96.3656C103.532 94.5841 103.147 92.0809 101.366 90.7745L93.8655 85.2745Z" fill="white"/>
</svg>
