<svg width="16" height="68" viewBox="0 0 16 68" fill="none" xmlns="http://www.w3.org/2000/svg">
<path d="M0 60C0 64.4183 3.58172 68 8 68C12.4183 68 16 64.4183 16 60C16 55.5817 12.4183 52 8 52C3.58172 52 0 55.5817 0 60ZM6.5 3.475C6.5 4.30343 7.17157 4.975 8 4.975C8.82843 4.975 9.5 4.30343 9.5 3.475H6.5ZM9.5 9.425C9.5 8.59657 8.82843 7.925 8 7.925C7.17157 7.925 6.5 8.59657 6.5 9.425H9.5ZM6.5 15.375C6.5 16.2034 7.17157 16.875 8 16.875C8.82843 16.875 9.5 16.2034 9.5 15.375H6.5ZM9.5 21.325C9.5 20.4966 8.82843 19.825 8 19.825C7.17157 19.825 6.5 20.4966 6.5 21.325H9.5ZM6.5 27.275C6.5 28.1034 7.17157 28.775 8 28.775C8.82843 28.775 9.5 28.1034 9.5 27.275H6.5ZM9.5 33.225C9.5 32.3966 8.82843 31.725 8 31.725C7.17157 31.725 6.5 32.3966 6.5 33.225H9.5ZM6.5 39.175C6.5 40.0034 7.17157 40.675 8 40.675C8.82843 40.675 9.5 40.0034 9.5 39.175H6.5ZM9.5 45.125C9.5 44.2966 8.82843 43.625 8 43.625C7.17157 43.625 6.5 44.2966 6.5 45.125H9.5ZM6.5 51.075C6.5 51.9034 7.17157 52.575 8 52.575C8.82843 52.575 9.5 51.9034 9.5 51.075H6.5ZM9.5 57.025C9.5 56.1966 8.82843 55.525 8 55.525C7.17157 55.525 6.5 56.1966 6.5 57.025H9.5ZM6.5 0.5V3.475H9.5V0.5H6.5ZM6.5 9.425V15.375H9.5V9.425H6.5ZM6.5 21.325V27.275H9.5V21.325H6.5ZM6.5 33.225V39.175H9.5V33.225H6.5ZM6.5 45.125V51.075H9.5V45.125H6.5ZM6.5 57.025V60H9.5V57.025H6.5Z" fill="white"/>
</svg>
