<svg width="139" height="139" viewBox="0 0 139 139" fill="none" xmlns="http://www.w3.org/2000/svg">
<path d="M6.72532 47.5C4.31215 54.3861 3 61.7898 3 69.5C3 106.227 32.7731 136 69.5 136C84.7411 136 98.7847 130.873 110 122.249M11.7526 36.5C23.2148 16.4853 44.7826 3 69.5 3C106.227 3 136 32.7731 136 69.5C136 85.4285 130.4 100.049 121.061 111.5" stroke="white" stroke-width="6" stroke-linecap="round" stroke-linejoin="round"/>
<path d="M69.5 46.8494L55.25 38.6221C51.9167 36.6976 47.75 39.1032 47.75 42.9522V94.0478C47.75 97.8968 51.9167 100.302 55.25 98.3779L62.5 94.1921M81 53.4889L99.5 64.1699C102.833 66.0944 102.833 70.9056 99.5 72.8301L73 88.1299" stroke="white" stroke-width="4" stroke-linecap="round" stroke-linejoin="round"/>
</svg>
