<?xml version="1.0" encoding="UTF-8" standalone="no"?><!DOCTYPE svg PUBLIC "-//W3C//DTD SVG 1.1//EN" "http://www.w3.org/Graphics/SVG/1.1/DTD/svg11.dtd"><svg width="100%" height="100%" viewBox="0 0 245 159" version="1.1" xmlns="http://www.w3.org/2000/svg" xmlns:xlink="http://www.w3.org/1999/xlink" xml:space="preserve" xmlns:serif="http://www.serif.com/" style="fill-rule:evenodd;clip-rule:evenodd;stroke-linecap:round;stroke-miterlimit:10;"><path d="M181.925,79.755c0,-8.967 -7.281,-16.247 -16.25,-16.247c-8.969,-0 -16.25,7.28 -16.25,16.247c0,8.968 7.281,16.248 16.25,16.248c8.969,0 16.25,-7.28 16.25,-16.248Z" style="fill:none;stroke:#e52121;stroke-width:12.5px;"/><path d="M138.383,79.06c-0,-8.968 -7.282,-16.248 -16.25,-16.248c-8.969,-0 -16.25,7.28 -16.25,16.248c-0,8.967 7.281,16.248 16.25,16.248c8.968,-0 16.25,-7.281 16.25,-16.248Z" style="fill:none;stroke:#e52121;stroke-width:12.5px;"/><path d="M95.312,79.06c-0,-8.968 -7.282,-16.248 -16.25,-16.248c-8.969,-0 -16.25,7.28 -16.25,16.248c-0,8.967 7.281,16.248 16.25,16.248c8.968,-0 16.25,-7.281 16.25,-16.248Z" style="fill:none;stroke:#e52121;stroke-width:12.5px;"/></svg>