<?xml version="1.0" encoding="UTF-8" standalone="no"?><!DOCTYPE svg PUBLIC "-//W3C//DTD SVG 1.1//EN" "http://www.w3.org/Graphics/SVG/1.1/DTD/svg11.dtd"><svg width="100%" height="100%" viewBox="0 0 706 369" version="1.1" xmlns="http://www.w3.org/2000/svg" xmlns:xlink="http://www.w3.org/1999/xlink" xml:space="preserve" xmlns:serif="http://www.serif.com/" style="fill-rule:evenodd;clip-rule:evenodd;stroke-linecap:round;stroke-miterlimit:10;"><path d="M192.512,154.09c-4.254,-2.746 -9.254,-5.121 -15.004,-7.125c-5.75,-1.996 -12.129,-3 -19.121,-3c-7.5,0 -14.437,1.125 -20.817,3.375c-6.375,2.25 -11.941,5.942 -16.683,11.063c-4.754,5.129 -8.5,11.625 -11.254,19.5c-2.754,7.87 -4.125,17.433 -4.125,28.687c-0,21 4.937,36.254 14.817,45.75c9.87,9.5 23.062,14.25 39.562,14.25c7.5,0 13.808,-0.808 18.938,-2.437c5.116,-1.625 9.683,-3.563 13.687,-5.813l0,-104.25Zm-39,-41.625c7.496,0 14.558,0.813 21.188,2.438c6.616,1.625 12.433,3.687 17.433,6.187l-0,-71.254c1.746,-0.496 4.25,-1.121 7.504,-1.871c3.242,-0.75 6.746,-1.125 10.496,-1.125c7.25,0 12.625,1.379 16.129,4.125c3.496,2.754 5.246,7.379 5.246,13.875l-0,196.5c-0,5.25 -1.121,9.563 -3.371,12.938c-2.25,3.375 -5.754,6.562 -10.504,9.562c-5.754,3.75 -13.563,7.125 -23.438,10.125c-9.879,3 -21.187,4.496 -33.933,4.496c-14.25,-0 -27.254,-1.813 -39.004,-5.433c-11.754,-3.621 -21.746,-9.246 -30,-16.875c-8.246,-7.621 -14.625,-17.25 -19.125,-28.875c-4.5,-11.625 -6.75,-25.313 -6.75,-41.063c-0,-16.25 2.312,-30.312 6.937,-42.187c4.625,-11.871 10.934,-21.621 18.938,-29.25c8,-7.625 17.312,-13.246 27.937,-16.88c10.625,-3.616 22.063,-5.433 34.317,-5.433" style="fill:#010203;fill-rule:nonzero;"/><path d="M377.383,244.841c0,16.754 -6.25,29.875 -18.75,39.371c-12.504,9.5 -30.629,14.25 -54.375,14.25c-9.75,0 -18.75,-0.75 -27,-2.246c-8.25,-1.5 -15.316,-3.621 -21.187,-6.375c-5.875,-2.75 -10.442,-6.004 -13.683,-9.75c-3.259,-3.75 -4.88,-7.879 -4.88,-12.379c0,-3.746 0.938,-7.246 2.813,-10.496c1.875,-3.25 4.437,-5.871 7.687,-7.875c6.996,4.496 15,8.621 24,12.375c9,3.746 19.5,5.621 31.505,5.621c11.245,0 19.87,-1.929 25.87,-5.808c6,-3.875 9,-9.438 9,-16.688c0,-6.246 -2.058,-11.25 -6.187,-15.004c-4.125,-3.746 -10.188,-6.617 -18.188,-8.621l-25.5,-6.75c-17.004,-4.5 -29.5,-10.625 -37.5,-18.375c-8.004,-7.75 -12,-18.375 -12,-31.879c0,-7.246 1.5,-14.062 4.5,-20.437c3,-6.371 7.434,-11.867 13.313,-16.5c5.875,-4.621 13.183,-8.246 21.937,-10.871c8.75,-2.625 18.75,-3.942 30,-3.942c9,0 17.184,0.696 24.563,2.067c7.371,1.375 13.75,3.25 19.125,5.621c5.375,2.383 9.567,5.316 12.562,8.812c3,3.504 4.5,7.258 4.5,11.254c0,4 -0.879,7.442 -2.625,10.309c-1.75,2.879 -4,5.191 -6.75,6.937c-4.5,-2.746 -11.191,-5.746 -20.062,-9c-8.875,-3.242 -18.438,-4.875 -28.688,-4.875c-10.5,0 -18.75,1.821 -24.75,5.442c-6,3.625 -8.995,8.687 -8.995,15.183c-0,5.008 1.683,9.133 5.058,12.375c3.375,3.254 9.187,5.879 17.437,7.879l21.75,5.621c18.996,5.008 33.005,11.758 42,20.254c9,8.5 13.5,20.004 13.5,34.5" style="fill:#010203;fill-rule:nonzero;"/><path d="M459.508,256.466c8.496,0 15.625,-1.25 21.38,-3.75c5.745,-2.496 10.62,-5.5 14.625,-9.004l-0,-90.75c-3.755,-2.25 -8.384,-4.308 -13.875,-6.183c-5.505,-1.875 -12.005,-2.813 -19.5,-2.813c-15.259,0 -27.509,4.625 -36.75,13.871c-9.255,9.254 -13.88,23.25 -13.88,42c0,10.254 1.246,19.004 3.755,26.254c2.491,7.25 5.866,13.121 10.125,17.621c4.245,4.504 9.308,7.754 15.183,9.75c5.867,2.008 12.192,3.004 18.937,3.004m36.375,20.246c-4.75,3 -10.562,5.504 -17.437,7.5c-6.875,2.008 -15.063,3.004 -24.563,3.004c-11,0 -21.441,-1.558 -31.312,-4.687c-9.879,-3.125 -18.563,-8.121 -26.058,-15.004c-7.505,-6.871 -13.446,-15.809 -17.817,-26.809c-4.375,-11 -6.563,-24.5 -6.563,-40.5c0,-14.496 2.188,-27.187 6.563,-38.066c4.371,-10.871 10.5,-19.996 18.379,-27.371c7.867,-7.375 17.242,-12.942 28.125,-16.688c10.871,-3.75 22.933,-5.629 36.179,-5.629c12.25,0 23.567,1.567 33.946,4.688c10.367,3.129 18.804,6.816 25.308,11.066c4.246,2.754 7.559,5.875 9.938,9.375c2.375,3.504 3.562,7.75 3.562,12.746l0,147.75c0,12.5 -2.187,23.25 -6.558,32.25c-4.379,9.004 -10.383,16.317 -18,21.938c-7.633,5.629 -16.692,9.754 -27.192,12.379c-10.495,2.625 -21.75,3.933 -33.745,3.933c-12.755,0 -23.759,-1.254 -33,-3.746c-9.255,-2.504 -16.009,-5.004 -20.259,-7.5c-7.746,-4.754 -11.621,-11.008 -11.621,-18.75c0,-4.258 0.871,-7.816 2.625,-10.687c1.746,-2.879 3.992,-5.196 6.75,-6.942c5.746,3.996 13.371,7.629 22.88,10.879c9.495,3.242 19.62,4.875 30.37,4.875c15.755,0 27.938,-3.191 36.563,-9.562c8.625,-6.375 12.937,-16.688 12.937,-30.938l0,-19.504Z" style="fill:#010203;fill-rule:nonzero;"/><path d="M656.196,152.589c-6.875,-5.746 -16.191,-8.621 -27.937,-8.621c-8.754,-0 -16.567,1.121 -23.438,3.371c-6.875,2.25 -12.812,4.754 -17.808,7.5l-0,137.625c-1.754,0.75 -4.192,1.437 -7.313,2.062c-3.129,0.621 -6.566,0.938 -10.316,0.938c-7.254,-0 -12.625,-1.375 -16.125,-4.125c-3.504,-2.746 -5.25,-7.371 -5.25,-13.871l-0,-123.75c-0,-5.75 1.129,-10.375 3.375,-13.879c2.25,-3.496 6,-6.996 11.25,-10.5c7,-4.25 16.125,-8.121 27.375,-11.625c11.25,-3.496 24,-5.25 38.25,-5.25c24.246,-0 43.25,5.437 57.004,16.312c13.742,10.879 20.621,27.317 20.621,49.313l-0,114.375c-1.75,0.75 -4.254,1.437 -7.5,2.062c-3.25,0.621 -6.75,0.938 -10.5,0.938c-7.254,-0 -12.625,-1.375 -16.125,-4.125c-3.5,-2.746 -5.246,-7.371 -5.246,-13.871l-0,-97.879c-0,-12.246 -3.446,-21.246 -10.317,-27" style="fill:#010203;fill-rule:nonzero;"/><path d="M181.926,79.755c0,-8.967 -7.281,-16.247 -16.25,-16.247c-8.968,-0 -16.25,7.28 -16.25,16.247c0,8.968 7.282,16.248 16.25,16.248c8.969,0 16.25,-7.28 16.25,-16.248Z" style="fill:none;stroke:#e52121;stroke-width:12.5px;"/><path d="M138.384,79.06c0,-8.968 -7.281,-16.248 -16.25,-16.248c-8.968,-0 -16.25,7.28 -16.25,16.248c0,8.967 7.282,16.248 16.25,16.248c8.969,-0 16.25,-7.281 16.25,-16.248Z" style="fill:none;stroke:#e52121;stroke-width:12.5px;"/><path d="M95.312,79.06c-0,-8.968 -7.282,-16.248 -16.25,-16.248c-8.969,-0 -16.25,7.28 -16.25,16.248c-0,8.967 7.281,16.248 16.25,16.248c8.968,-0 16.25,-7.281 16.25,-16.248Z" style="fill:none;stroke:#e52121;stroke-width:12.5px;"/></svg>